<?xml version="1.0" encoding="UTF-8"?><svg id="b" xmlns="http://www.w3.org/2000/svg" viewBox="0 0 494.09 440.67"><g id="c"><path d="M278.11,129.96c0-17.05-13.87-30.93-30.93-30.93s-30.93,13.87-30.93,30.93,13.87,30.93,30.93,30.93,30.93-13.87,30.93-30.93Zm-30.93,20.93c-11.54,0-20.93-9.39-20.93-20.93s9.39-20.93,20.93-20.93,20.93,9.39,20.93,20.93-9.39,20.93-20.93,20.93Zm-.14-150.88C110.61,0,0,110.61,0,247.05c0,73.45,32.06,139.39,82.94,184.65h.01c7.61-5.53,16.96-8.8,27.06-8.8,14.3,0,27.55,6.48,36.37,17.79l8.11-5.83c-2.16-3.26-3.35-7.54-3.35-12.06,0-11.81,9.61-21.42,21.42-21.42,2.65,0,5.24,.48,7.71,1.44l2.08,.8,1.99-1.01c34.52-17.6,43.49-47.24,45.82-61.37v57.87l8.14-20.43,8.73,29.94,8.73-29.94,8.14,20.43v-53.27c4.96,40.12,41.31,56.89,53.07,61.28l2.21,.82,2.04-1.18c3.24-1.87,6.94-2.86,10.69-2.86,11.81,0,21.42,9.61,21.42,21.42,0,1.59-.18,3.2-.54,4.78l-.04,.16,7.8,5.04c7.5-4.91,16.21-7.5,25.2-7.5,8.33,0,16.15,2.23,22.9,6.11h.01c52.32-45.3,85.41-112.21,85.41-186.84C494.09,110.61,383.49,0,247.05,0Zm0,377.72l-11.69-36.95h23.39l-11.69,36.95Zm-25.36-46.95l-9.18-23.91h29.69v9.86h10v-9.86h29.41l-9.18,23.91h-50.73Zm20.5-126.67v92.76h-48.47V152.48c0-.15-.19-15.36,6.68-35.12,8.79-25.29,24.52-46.15,46.79-62.06,22.26,15.91,37.99,36.78,46.79,62.06,6.87,19.76,6.69,34.97,6.68,35.11v144.39h-48.47v-92.76h-10Zm172.48,210.56c-2.5,2.5-5.06,4.93-7.65,7.3-6.56-2.69-13.73-4.19-21.24-4.19s-15.48,1.62-22.55,4.72c-1.42-16.02-14.92-28.62-31.3-28.62-4.67,0-9.29,1.05-13.49,3.04-12.42-5.05-42.65-20.93-44.94-56.15h5.78l13.02-33.91h18.35v-31.47l42.41,39.64v-69.51l-42.41-49.52v-43.38c.02-1.28,.11-17.2-7.09-38.12-6.77-19.66-21.55-47.67-53.57-69.43l-2.81-1.91-2.81,1.91c-32.01,21.76-46.8,49.77-53.57,69.43-7.2,20.92-7.11,36.84-7.09,38.12v43.38l-42.41,49.52v69.51l42.41-39.64v31.47h18.07l13.02,33.91h5.29c-2.27,12.5-10.28,36.72-38.44,51.93-2.94-.89-5.99-1.34-9.09-1.34-17.17,0-31.16,13.84-31.42,30.94-9.09-6.09-19.85-9.41-31.14-9.41-9.33,0-18.12,2.3-25.86,6.35-1.59-1.5-3.17-3.02-4.73-4.57-21.77-21.77-38.87-47.12-50.81-75.35-12.36-29.22-18.62-60.26-18.62-92.27s6.27-63.05,18.62-92.27c11.94-28.23,29.03-53.58,50.81-75.35,21.77-21.77,47.12-38.87,75.35-50.8,29.22-12.36,60.26-18.62,92.27-18.62s63.05,6.27,92.27,18.62c28.23,11.94,53.58,29.03,75.35,50.8,21.77,21.77,38.87,47.12,50.81,75.35,12.36,29.22,18.62,60.26,18.62,92.27s-6.27,63.05-18.62,92.27c-11.94,28.23-29.03,53.58-50.81,75.35Zm-104.01-152.96v-50.33l32.41,37.84v42.78l-32.41-30.29Zm-127.08-50.16v50.3l-32.26,30.15v-42.78l32.26-37.67Z" fill="#7751ff"/></g></svg>