<svg xmlns="http://www.w3.org/2000/svg" viewBox="0 0 200 200"><rect width="200" height="200" style="fill:#ed5565"/><path d="M114.81,72.36c-1.19.84-1.89.37-1.55-1.07l1.26-5.36a4.8,4.8,0,0,0-1.38-4.37l-3.91-3.39c-1.11-1-.83-1.79.64-1.84l5.47-.15a3.91,3.91,0,0,0,3.44-2.61l1.7-6c.41-1.42,1.19-1.44,1.66,0l2.07,5.77A4.12,4.12,0,0,0,127.78,56h5.59c1.46,0,1.76.81.65,1.79l-4.25,3.74a4.6,4.6,0,0,0-1.27,4.34l1.37,4.76c.4,1.41-.29,1.93-1.54,1.19L123.8,69a4.4,4.4,0,0,0-4.46.16Zm0,78.57c-1.19.84-1.89.37-1.55-1.07l1.29-5.36a4.85,4.85,0,0,0-1.38-4.37l-3.92-3.39c-1.11-1-.82-1.79.64-1.84l5.48-.15a3.91,3.91,0,0,0,3.41-2.61l1.7-5.95c.41-1.42,1.19-1.44,1.66,0l2.07,5.77a4.12,4.12,0,0,0,3.57,2.56h5.59c1.46,0,1.76.81.65,1.79l-4.25,3.74a4.6,4.6,0,0,0-1.27,4.34l1.36,4.76c.4,1.43-.28,2-1.53,1.2l-4.53-2.8a4.38,4.38,0,0,0-4.46.14Zm29.82-22.62c-1.19.84-1.89.37-1.55-1.07l1.29-5.36A4.91,4.91,0,0,0,143,117.5l-3.92-3.38c-1.11-1-.81-1.8.66-1.83l5.46-.16a3.91,3.91,0,0,0,3.42-2.61l1.71-6c.42-1.42,1.19-1.44,1.67,0l2.07,5.78a4.12,4.12,0,0,0,3.57,2.55h5.58c1.47,0,1.77.81.66,1.79l-4.25,3.74a4.6,4.6,0,0,0-1.28,4.34l1.36,4.77c.41,1.42-.28,2-1.55,1.19l-4.51-2.8a4.36,4.36,0,0,0-4.45.14Zm0-29.76c-1.19.84-1.89.37-1.55-1.07l1.29-5.36A4.85,4.85,0,0,0,143,87.75l-3.92-3.39c-1.11-1-.82-1.79.64-1.84l5.48-.15a3.92,3.92,0,0,0,3.42-2.61l1.71-6c.42-1.42,1.19-1.44,1.67,0l2.07,5.77a4.12,4.12,0,0,0,3.57,2.56h5.58c1.47,0,1.77.81.66,1.79l-4.25,3.74A4.6,4.6,0,0,0,158.34,92l1.36,4.76c.41,1.43-.27,2-1.52,1.19l-4.54-2.79a4.33,4.33,0,0,0-4.45.14Zm-73.2-32,7.39,22.38a2.4,2.4,0,0,0,2.29,1.6h23.81a2.29,2.29,0,0,1,1.38,4.16L87.06,108.4A2.29,2.29,0,0,0,86.2,111l7.32,22.35a2.32,2.32,0,0,1-3.59,2.57L70.57,122.05a2.36,2.36,0,0,0-2.75,0L48.48,135.87a2.39,2.39,0,0,1-3.58-2.57L52.29,111a2.31,2.31,0,0,0-.86-2.59L32.07,94.64a2.3,2.3,0,0,1,1.42-4.16H57.36a2.37,2.37,0,0,0,2.22-1.59L67,66.51a2.38,2.38,0,0,1,4.45,0Z" style="fill:#ffe35a"/></svg>