<svg xmlns="http://www.w3.org/2000/svg" viewBox="0 0 200 200"><rect y="66" width="200" height="68" style="fill: #fff"/><rect width="200" height="66" style="fill: #52c162"/><rect y="134" width="200" height="66" style="fill: #ed5565"/><path d="m115.74,124.82c.72,0,1.42-.03,2.13-.08-2.98,1.07-6.19,1.66-9.54,1.66-2.09,0-4.13-.23-6.09-.67l-.02.67-2.21,3.04-2.21-3.04-.02-.67c-1.96.43-4,.67-6.09.67-3.35,0-6.56-.59-9.54-1.66.7.05,1.41.08,2.13.08,3.72,0,7.28-.65,10.58-1.85-8.76-4.78-14.71-14.08-14.71-24.77,0-8.35,3.63-15.85,9.4-21.01-3.05,4.8-4.82,10.49-4.82,16.6,0,10.32,5.05,19.47,12.8,25.11l-1.46-40.08,3.95-2.91,3.95,2.91-1.46,40.08c7.76-5.64,12.8-14.78,12.8-25.11,0-6.11-1.77-11.8-4.82-16.6,5.77,5.16,9.4,12.66,9.4,21.01,0,10.69-5.95,19.98-14.71,24.77,3.3,1.2,6.86,1.85,10.58,1.85Zm-40.98-24.45c0-10.01,5.23-18.8,13.09-23.8-10.5,2.19-18.4,11.5-18.4,22.66,0,9.35,5.55,17.4,13.53,21.05-5.08-5.1-8.22-12.13-8.22-19.9Zm37.4-23.8c7.87,5,13.09,13.79,13.09,23.8,0,7.77-3.14,14.8-8.22,19.9,7.98-3.65,13.53-11.7,13.53-21.05,0-11.15-7.89-20.46-18.4-22.66Zm-17.38-.65c2.85,0,5.16-2.28,5.22-5.11.06,2.83,2.38,5.11,5.22,5.11s5.23-2.34,5.23-5.23c0-.04,0-.08,0-.12-1.17,1.63-3.07,2.69-5.22,2.69s-4.06-1.06-5.22-2.69c-1.17,1.63-3.07,2.69-5.22,2.69s-4.06-1.06-5.22-2.69c0,.04,0,.08,0,.12,0,2.89,2.34,5.23,5.23,5.23Z" style="fill: #ed5565"/></svg>