<svg xmlns="http://www.w3.org/2000/svg" width="60" height="60" viewBox="0 0 60 60">
  <g id="组_95" data-name="组 95" transform="translate(9239 -2697)">
    <circle id="椭圆_68" data-name="椭圆 68" cx="30" cy="30" r="30" transform="translate(-9239 2697)" fill="#fff"/>
    <g id="组_89" data-name="组 89" transform="translate(-9230.999 2707.098)">
      <path id="路径_3516" data-name="路径 3516" d="M281.5,6.127,279.525,0,265.889,5.38H255.06L241.424,0l-1.98,6.127,3.467,13.918-2.956,9.315,2.478,8.821,9.414-2.391,5.529,4.147h6.2L269.1,35.79l9.414,2.391,2.478-8.821-2.956-9.315Z" transform="translate(-239.444 0)" fill="#f48426"/>
      <path id="路径_3517" data-name="路径 3517" d="M240.963,62.572l12.528-.332-3.475-7.354,4.129-4.851-10.226,3.222Z" transform="translate(-240.453 -33.212)" fill="#f48423"/>
      <path id="路径_3518" data-name="路径 3518" d="M258.969,5.38l2.316,6.463L245.332,0Z" transform="translate(-243.353 0)" fill="#e27623"/>
      <path id="路径_3519" data-name="路径 3519" d="M257.376,11.843,241.424,0l-1.98,6.127,3.467,13.918,10.226-3.222Z" transform="translate(-239.444 0)" fill="#9a5123"/>
      <path id="路径_3520" data-name="路径 3520" d="M277.041,55.77l-.4-10.494-.389-10.053-8.368,9.831,8.144,5.149Z" transform="translate(-258.325 -23.38)" fill="#e37623"/>
      <path id="路径_3521" data-name="路径 3521" d="M278.147,79.476l5.679,3.362-1.009-5.567L278.109,76Z" transform="translate(-265.109 -50.448)" fill="#f28328"/>
      <path id="路径_3522" data-name="路径 3522" d="M276.333,93.1l6.314-3.4-5.679-3.362Z" transform="translate(-263.93 -57.306)" fill="#e5771f"/>
      <path id="路径_3523" data-name="路径 3523" d="M262,86.463l4.818,6.633.635-6.762Z" transform="translate(-254.419 -57.305)" fill="#d06415"/>
      <path id="路径_3524" data-name="路径 3524" d="M240.963,86.921l2.478,8.821,9.414-2.391-4.818-6.633Z" transform="translate(-240.453 -57.561)" fill="#e37726"/>
      <path id="路径_3525" data-name="路径 3525" d="M282.646,96.334l-.784,7.546-5.529-4.147Z" transform="translate(-263.93 -63.943)" fill="#d5bfb1"/>
      <path id="路径_3526" data-name="路径 3526" d="M271.363,71.817c.037-.187-.038-3.474-.038-3.474l-3.436-3.88Z" transform="translate(-258.325 -42.789)" fill="#e37623"/>
      <path id="路径_3527" data-name="路径 3527" d="M267.888,64.463l8.757.222-1.589,4.028-3.732-.37Z" transform="translate(-258.325 -42.788)" fill="#cf6414"/>
      <path id="路径_3528" data-name="路径 3528" d="M281.135,70.111l1.681,3.25-4.708-1.27Z" transform="translate(-265.109 -46.538)" fill="#313446"/>
      <path id="路径_3529" data-name="路径 3529" d="M337,62.572l-12.528-.332,3.475-7.354-4.129-4.851,10.226,3.222Z" transform="translate(-295.446 -33.212)" fill="#f48423"/>
      <path id="路径_3530" data-name="路径 3530" d="M313.521,5.38,311.2,11.843,327.157,0Z" transform="translate(-287.077 0)" fill="#e27623"/>
      <path id="路径_3531" data-name="路径 3531" d="M311.2,11.843,327.157,0l1.98,6.127L325.67,20.045l-10.226-3.222Z" transform="translate(-287.077 0)" fill="#9a5123"/>
      <path id="路径_3532" data-name="路径 3532" d="M308.872,55.77l.4-10.494.389-10.053,8.368,9.831L309.88,50.2Z" transform="translate(-285.528 -23.38)" fill="#e37623"/>
      <path id="路径_3533" data-name="路径 3533" d="M314.55,79.476l-5.679,3.362,1.009-5.567L314.588,76Z" transform="translate(-285.528 -50.448)" fill="#f28328"/>
      <path id="路径_3534" data-name="路径 3534" d="M315.185,93.1l-6.314-3.4,5.678-3.362Z" transform="translate(-285.528 -57.306)" fill="#e5771f"/>
      <path id="路径_3535" data-name="路径 3535" d="M331.214,86.463,326.4,93.1l-.635-6.762Z" transform="translate(-296.739 -57.305)" fill="#d06415"/>
      <path id="路径_3536" data-name="路径 3536" d="M339.542,86.921l-2.478,8.821-9.414-2.391,4.818-6.633Z" transform="translate(-297.992 -57.561)" fill="#e37726"/>
      <path id="路径_3537" data-name="路径 3537" d="M308.872,96.334l.784,7.546,5.529-4.147Z" transform="translate(-285.528 -63.943)" fill="#d5bfb1"/>
      <path id="路径_3538" data-name="路径 3538" d="M325.739,71.817c-.037-.187.038-3.474.038-3.474l3.436-3.88Z" transform="translate(-296.718 -42.789)" fill="#e37623"/>
      <path id="路径_3539" data-name="路径 3539" d="M318.805,64.463l-8.757.222,1.589,4.028,3.732-.37Z" transform="translate(-286.309 -42.788)" fill="#cf6414"/>
      <path id="路径_3540" data-name="路径 3540" d="M313.553,70.111l-1.681,3.25,4.708-1.27Z" transform="translate(-287.52 -46.538)" fill="#313446"/>
      <path id="路径_3541" data-name="路径 3541" d="M285.888,16h10.828L294.4,22.463l-.784,20.547h-4.627L288.2,22.463Z" transform="translate(-270.273 -10.62)" fill="#f48426"/>
      <path id="路径_3542" data-name="路径 3542" d="M294.3,96.334h4.627l.4,3.97h-5.435Z" transform="translate(-275.58 -63.943)" fill="#181716"/>
      <path id="路径_3543" data-name="路径 3543" d="M298.973,111.716h-6.2l.372-3.577h5.435Z" transform="translate(-274.845 -71.779)" fill="#bfab9c"/>
    </g>
  </g>
</svg>
