<?xml version="1.0" encoding="UTF-8"?><svg id="b" xmlns="http://www.w3.org/2000/svg" viewBox="0 0 550.16 550.18"><g id="c"><path d="M408.63,185.1c27.97-25.46,50.58-60.79,59.79-103.94-43.09,9.33-78.37,32.08-103.74,60.06-24.98,27.53-41.28,59.68-48.7,92.84,33.12-7.53,65.25-23.93,92.64-48.96Zm-33.03-33.86c18.33-20.2,42.29-37.38,70.92-48.08-10.6,28.7-27.79,52.73-47.88,71.03-17.03,15.5-37.5,28.28-59.95,37.06,8.72-22.38,21.49-42.98,36.9-60.01Zm33.28,213.48c-27.46-24.98-59.61-41.25-92.76-48.76,7.49,33.21,23.89,65.28,48.92,92.69,25.43,27.88,60.86,50.56,103.95,59.78-9.35-43.03-32.09-78.36-60.11-103.71Zm-32.89,33.93c-15.53-16.98-28.32-37.48-37.08-59.91,22.4,8.7,42.97,21.43,60.02,36.93,20.13,18.3,37.34,42.23,48.03,70.81-28.61-10.55-52.67-27.71-70.97-47.83ZM81.72,468.96c43.03-9.33,78.4-32.06,103.81-60.06,24.89-27.48,41.17-59.66,48.61-92.81-33.15,7.55-65.21,23.9-92.65,48.96-27.94,25.45-50.57,60.83-59.77,103.91Zm69.76-92.96c17.02-15.53,37.54-28.3,59.92-37.05-8.67,22.4-21.45,42.9-36.88,60.01-18.29,20.18-42.2,37.36-70.82,48.01,10.51-28.65,27.65-52.63,47.78-70.96Zm-10.21-190.5c27.49,24.88,59.59,41.21,92.84,48.66-7.55-33.15-23.97-65.18-48.96-92.64-25.48-27.88-60.82-50.61-103.91-59.83,9.24,43.08,32.05,78.41,60.03,103.81Zm32.87-33.98c15.54,17,28.3,37.53,37.09,59.91-22.4-8.75-42.97-21.43-59.99-36.93-20.18-18.3-37.36-42.26-48.06-70.81,28.7,10.55,52.66,27.65,70.96,47.83Zm262.73,163.88c39.62-2.85,79.53-17.53,113.29-40.69-33.79-23.05-73.76-37.65-113.4-40.4,54.3-41.27,90.36-112.18,89.81-180.58-.09-10.05-.5-19.93-1.3-29.53-9.65-.72-19.42-1.18-29.53-1.18-68.46-.42-139.34,35.82-180.38,90.29-2.84-39.64-17.52-79.56-40.65-113.32-23.06,33.76-37.63,73.7-40.4,113.32C193.07,59.01,122.14,23.02,53.63,23.6c-9.98,.02-19.76,.47-29.39,1.32-.78,9.58-1.21,19.45-1.3,29.45-.38,68.42,35.84,139.27,90.28,180.39-39.63,2.86-79.52,17.52-113.22,40.71,33.78,23.04,73.78,37.62,113.44,40.31-54.38,41.21-90.44,112.23-89.91,180.69,.15,10,.59,19.83,1.34,29.48,9.65,.73,19.44,1.15,29.53,1.2,68.44,.4,139.28-35.82,180.38-90.24,2.84,39.6,17.54,79.52,40.7,113.24,23.05-33.77,37.58-73.72,40.32-113.36,41.23,54.32,112.19,90.37,180.66,89.75,10.06-.1,19.88-.52,29.48-1.3,.8-9.65,1.18-19.43,1.26-29.48,.38-68.44-35.86-139.29-90.33-180.39Zm-22.72-14.57l-87.76-25.82,87.91-26.08c36.33-1.9,74.23,7.69,107.63,25.83-33.45,18.24-71.3,27.98-107.78,26.07ZM495.62,37.83c5.34,0,10.56,.13,15.67,.4,.29,5.15,.41,10.35,.46,15.58,.58,71.55-41.56,146.02-102.63,181.21l-109.35,32.48c-1.2-3.9-3.33-7.57-6.41-10.66-3.11-3.11-6.8-5.26-10.72-6.45l32.15-109.34c34.97-61.22,109.34-103.59,180.84-103.21Zm-220.88-9.65c18.16,33.25,27.87,71.07,26.18,107.34-.01,.03-.03,.07-.04,.1l-25.87,88.06-26.11-87.89c-1.84-36.38,7.74-74.19,25.83-107.61ZM37.83,54.41c0-5.23,.17-10.43,.32-15.53,5.23-.3,10.39-.43,15.65-.43,71.6-.62,146.07,41.6,181.21,102.73l32.45,109.23c-3.9,1.2-7.58,3.34-10.66,6.43-3.09,3.1-5.24,6.78-6.43,10.69l-109.52-32.18C79.79,200.26,37.38,125.99,37.83,54.41Zm97.86,194.87l87.98,25.86-87.96,26.1s-.06,.02-.1,.04c-36.3,1.82-74.03-7.82-107.38-25.81,33.28-18.21,71.04-27.92,107.46-26.18ZM54.48,512.32c-5.3,0-10.47-.12-15.68-.37-.19-5.15-.36-10.35-.42-15.58-.59-71.59,41.62-146.08,102.76-181.25l109.25-32.42c1.2,3.9,3.34,7.57,6.42,10.67,3.1,3.11,6.8,5.25,10.73,6.44l-32.07,109.13s-.05,.06-.07,.09c-34.92,61.23-109.39,103.69-180.92,103.29Zm220.91,9.65c-18.14-33.38-27.9-71.18-26.13-107.46l25.87-87.97,26.13,87.96s0,.02,.01,.04c1.84,36.32-7.82,74.06-25.88,107.43Zm236.57-10.68c-5.15,.25-10.36,.43-15.63,.43-71.57,.65-146.04-41.57-181.2-102.68l-32.42-109.28c3.89-1.2,7.56-3.34,10.64-6.42,3.1-3.1,5.25-6.8,6.44-10.72l109.17,32.06s.08,.06,.13,.09c61.17,34.98,103.68,109.34,103.2,180.98,0,5.25-.11,10.4-.33,15.55Z" fill="#fff"/></g></svg>