<svg xmlns="http://www.w3.org/2000/svg" viewBox="0 0 200 200"><rect width="200" height="200" style="fill:#ed5565"/><path d="M119.25,101.28l16.49-5.45a1.73,1.73,0,0,0,1.17-1.64V76.56a1.7,1.7,0,0,1,1.66-1.73,1.61,1.61,0,0,1,.49.07,1.69,1.69,0,0,1,.95.69L150.13,89.8a1.68,1.68,0,0,0,1.91.63L168.52,85a1.72,1.72,0,0,1,2.15,1.14,1.75,1.75,0,0,1-.25,1.51l-10.23,14.28a1.74,1.74,0,0,0,0,2l10.19,14.28a1.71,1.71,0,0,1-1.89,2.65L152,115.42a1.67,1.67,0,0,0-1.91.62L140,130.3a1.71,1.71,0,0,1-2.37.39,1.68,1.68,0,0,1-.7-1.4V111.63a1.73,1.73,0,0,0-1.17-1.64l-16.49-5.43a1.73,1.73,0,0,1-1.09-2.19A1.76,1.76,0,0,1,119.25,101.28ZM89.89,143a43,43,0,1,1,28.18-75.42,50.34,50.34,0,1,0,0,64.88A42.78,42.78,0,0,1,89.89,143Z" style="fill:#ffe35a"/></svg>